<svg xmlns="http://www.w3.org/2000/svg" width="49" height="49" viewBox="0 0 49 49">
  <g id="_001-scholarship" data-name="001-scholarship" transform="translate(-1 -1)">
    <path id="Path_349" data-name="Path 349" d="M47.725,48.075a3.026,3.026,0,0,1,0-4.279l2.044-2.044A.79.79,0,0,0,49.21,40.4H43.59a5.527,5.527,0,0,0-3.865-9.484H32.378L40.033,27.7a.791.791,0,0,0,.483-.729V19.011l3.952-1.61v5.288l-2.139,2.139a.791.791,0,0,0-.149.912l2.371,4.742a.791.791,0,0,0,1.415,0l2.371-4.742a.79.79,0,0,0-.149-.912l-2.139-2.139V16.757l.3-.122a.791.791,0,0,0-.048-1.482L24.959,8.04a.8.8,0,0,0-.5,0L3.12,15.153a.791.791,0,0,0-.048,1.482L8.9,19.011v7.957a.791.791,0,0,0,.484.729l7.654,3.223H1.79a.79.79,0,0,0-.559,1.349l2.044,2.044a3.026,3.026,0,0,1,0,4.279L1.232,40.635a.79.79,0,0,0,.559,1.349H7.409a5.527,5.527,0,0,0,3.865,9.484H49.21a.79.79,0,0,0,.559-1.349ZM45.258,28.362l-1.409-2.819,1.409-1.409,1.409,1.409ZM47.3,41.984l-.695.695a4.572,4.572,0,0,0-1.278,2.467H11.274V41.984H47.3Zm-3.624-5.532a3.954,3.954,0,0,1-2.371,3.617V32.835A3.954,3.954,0,0,1,43.677,36.452ZM38.935,26.443,28.3,30.919h-.038v.016L25.5,32.1V25.129l13.435-5.474ZM24.71,9.623l19.062,6.354L24.71,23.743,5.648,15.978ZM10.484,19.655l13.435,5.474V32.1L10.484,26.443ZM3.7,32.5H20.8L24.4,34.019a.8.8,0,0,0,.614,0L28.624,32.5h11.1v3.161H5.671a4.572,4.572,0,0,0-1.278-2.467Zm0,7.9.695-.695a4.572,4.572,0,0,0,1.278-2.467H39.726V40.4H3.7Zm3.624,5.532a3.954,3.954,0,0,1,2.371-3.617v7.233A3.954,3.954,0,0,1,7.323,45.935Zm3.952,3.952V46.726H45.329a4.572,4.572,0,0,0,1.278,2.467l.695.695Z" transform="translate(0 -1.468)"/>
    <path id="Path_350" data-name="Path 350" d="M47.541,5.7A4.226,4.226,0,0,1,50.2,8.363a.791.791,0,0,0,1.5,0A4.226,4.226,0,0,1,54.363,5.7a.791.791,0,0,0,0-1.5A4.226,4.226,0,0,1,51.7,1.541a.791.791,0,0,0-1.5,0A4.226,4.226,0,0,1,47.541,4.2a.791.791,0,0,0,0,1.5Zm3.411-2.176a5.845,5.845,0,0,0,1.426,1.426,5.845,5.845,0,0,0-1.426,1.426,5.845,5.845,0,0,0-1.426-1.426A5.845,5.845,0,0,0,50.952,3.526Z" transform="translate(-9.645)"/>
    <path id="Path_351" data-name="Path 351" d="M5.541,7.7A4.226,4.226,0,0,1,8.2,10.363a.791.791,0,0,0,1.5,0A4.226,4.226,0,0,1,12.363,7.7a.791.791,0,0,0,0-1.5A4.226,4.226,0,0,1,9.7,3.541a.791.791,0,0,0-1.5,0A4.226,4.226,0,0,1,5.541,6.2a.791.791,0,0,0,0,1.5ZM8.952,5.526a5.845,5.845,0,0,0,1.426,1.426A5.845,5.845,0,0,0,8.952,8.377,5.845,5.845,0,0,0,7.526,6.952,5.845,5.845,0,0,0,8.952,5.526Z" transform="translate(-0.839 -0.419)"/>
  </g>
</svg>
