<svg id="Group_110" data-name="Group 110" xmlns="http://www.w3.org/2000/svg" width="32.901" height="31.889" viewBox="0 0 32.901 31.889">
  <path id="Path_374" data-name="Path 374" d="M26.549,45.406a3.316,3.316,0,0,0-2.367-1.048,3.431,3.431,0,0,0-2.4,1.042L19.572,47.53c-.182-.095-.364-.183-.539-.271-.252-.122-.49-.237-.693-.359a23.781,23.781,0,0,1-5.765-5.073,13.647,13.647,0,0,1-1.891-2.882c.574-.507,1.107-1.035,1.625-1.542.2-.189.392-.386.588-.575a3.034,3.034,0,0,0,0-4.681L10.985,30.3c-.217-.21-.441-.426-.651-.643-.42-.419-.862-.852-1.317-1.258a3.372,3.372,0,0,0-2.346-.994,3.491,3.491,0,0,0-2.381.994l-.014.014-2.381,2.32A4.879,4.879,0,0,0,.373,33.88a11.5,11.5,0,0,0,.9,5.019A28.936,28.936,0,0,0,6.628,47.53,32.823,32.823,0,0,0,17.6,55.83a17.551,17.551,0,0,0,6.164,1.759c.147.007.3.014.441.014a5.367,5.367,0,0,0,4.042-1.678c.007-.014.021-.02.028-.034A15.635,15.635,0,0,1,29.5,54.667c.3-.277.609-.568.911-.873a3.32,3.32,0,0,0,1.058-2.34,3.2,3.2,0,0,0-1.079-2.32Zm2.508,7.123c-.007,0-.007.007,0,0-.273.284-.553.541-.855.825a18.083,18.083,0,0,0-1.352,1.353,3.435,3.435,0,0,1-2.634,1.076c-.105,0-.217,0-.322-.007a15.589,15.589,0,0,1-5.463-1.583,30.983,30.983,0,0,1-10.338-7.82,27.285,27.285,0,0,1-5.043-8.111,9.364,9.364,0,0,1-.784-4.235,3.061,3.061,0,0,1,.967-2.009L5.62,29.713a1.618,1.618,0,0,1,1.065-.48,1.519,1.519,0,0,1,1.023.474l.021.02c.427.386.834.785,1.261,1.211.217.216.441.433.665.656l1.912,1.847a1.266,1.266,0,0,1,0,2.1c-.2.2-.4.392-.6.582-.588.582-1.149,1.123-1.758,1.651-.014.014-.028.02-.035.034a1.346,1.346,0,0,0-.364,1.536l.021.061a14.741,14.741,0,0,0,2.262,3.565l.007.007a25.416,25.416,0,0,0,6.22,5.466,9.677,9.677,0,0,0,.862.453c.252.122.49.237.693.359.028.014.056.034.084.047a1.562,1.562,0,0,0,.693.169A1.518,1.518,0,0,0,20.714,49l2.4-2.313a1.6,1.6,0,0,1,1.058-.507,1.443,1.443,0,0,1,1.009.494l.014.014,3.859,3.727A1.31,1.31,0,0,1,29.056,52.529Z" transform="translate(-0.344 -25.714)" fill="#fff"/>
  <path id="Path_375" data-name="Path 375" d="M245.63,87.579a7.948,7.948,0,0,1,6.472,6.472.829.829,0,0,0,.821.692,1.1,1.1,0,0,0,.142-.012.834.834,0,0,0,.685-.963,9.61,9.61,0,0,0-7.83-7.83.838.838,0,0,0-.963.679A.825.825,0,0,0,245.63,87.579Z" transform="translate(-227.111 -79.937)" fill="#fff"/>
  <path id="Path_376" data-name="Path 376" d="M262.638,12.907A15.824,15.824,0,0,0,249.744.013a.832.832,0,1,0-.272,1.643A14.134,14.134,0,0,1,261,13.179a.829.829,0,0,0,.821.692,1.1,1.1,0,0,0,.142-.012A.818.818,0,0,0,262.638,12.907Z" transform="translate(-229.75 0)" fill="#fff"/>
</svg>
