<svg xmlns="http://www.w3.org/2000/svg" width="75" height="75" viewBox="0 0 75 75">
  <g id="charity" transform="translate(-0.001)">
    <g id="Group_238" data-name="Group 238" transform="translate(11.225 68.963)">
      <g id="Group_237" data-name="Group 237">
        <path id="Path_253" data-name="Path 253" d="M81.489,474.515l-2.205-3.106a1.465,1.465,0,1,0-2.389,1.7l2.205,3.107a1.465,1.465,0,1,0,2.389-1.7Z" transform="translate(-76.624 -470.791)" fill="#f8e402"/>
      </g>
    </g>
    <g id="Group_240" data-name="Group 240" transform="translate(0.001 22.918)">
      <g id="Group_239" data-name="Group 239">
        <path id="Path_254" data-name="Path 254" d="M32.99,206.768l-2.4-11.439a21.573,21.573,0,0,0-9.123-13.543l-5.124-3.446a5.155,5.155,0,0,0-6.534.667V161.356a4.9,4.9,0,0,0-7.973-3.825A4.88,4.88,0,0,0,0,161.356v22.713a14.189,14.189,0,0,0,2.633,8.257l2.612,3.68a1.465,1.465,0,1,0,2.389-1.7l-2.612-3.68a11.275,11.275,0,0,1-2.092-6.562V161.356a1.974,1.974,0,1,1,3.948,0v18.02a10.235,10.235,0,0,0,2.64,6.872c.073.087.148.174.227.258.973,1.031,2.117,2.245,3.194,3.39l1.508,1.605.015.015,2.261,2.406a1.465,1.465,0,1,0,2.135-2.005c-.027-.028-1.741-1.854-3.7-3.936L11.8,184.407l-.025-.028a2.472,2.472,0,0,1,.048-3.239,2.215,2.215,0,0,1,2.884-.368l5.124,3.446a18.657,18.657,0,0,1,7.891,11.714l2.4,11.439a1.465,1.465,0,1,0,2.867-.6Z" transform="translate(-0.001 -156.451)" fill="#f8e402"/>
      </g>
    </g>
    <g id="Group_242" data-name="Group 242" transform="translate(8.187 64.684)">
      <g id="Group_241" data-name="Group 241">
        <path id="Path_255" data-name="Path 255" d="M58.551,442.2l-.009-.013a1.465,1.465,0,0,0-2.385,1.7l.009.013a1.465,1.465,0,1,0,2.385-1.7Z" transform="translate(-55.884 -441.575)" fill="#f8e402"/>
      </g>
    </g>
    <g id="Group_244" data-name="Group 244" transform="translate(41.98 22.918)">
      <g id="Group_243" data-name="Group 243">
        <path id="Path_256" data-name="Path 256" d="M317.766,157.534a4.9,4.9,0,0,0-7.973,3.825V179.01a5.155,5.155,0,0,0-6.534-.667l-5.124,3.445a21.572,21.572,0,0,0-9.123,13.543l-2.4,11.439a1.465,1.465,0,1,0,2.867.6l2.4-11.439a18.658,18.658,0,0,1,7.891-11.713l5.124-3.445a2.215,2.215,0,0,1,2.884.368,2.472,2.472,0,0,1,.051,3.236l-.028.031-7.058,7.51a1.465,1.465,0,1,0,2.135,2.006c.02-.021,6.006-6.385,6.978-7.416.079-.084.154-.171.227-.258a10.236,10.236,0,0,0,2.64-6.872v-18.02a1.974,1.974,0,1,1,3.948,0v22.713a11.275,11.275,0,0,1-2.092,6.562l-11.067,15.59a1.465,1.465,0,1,0,2.389,1.7l11.067-15.59a14.189,14.189,0,0,0,2.633-8.257V161.359A4.882,4.882,0,0,0,317.766,157.534Z" transform="translate(-286.58 -156.454)" fill="#f8e402"/>
      </g>
    </g>
    <g id="Group_246" data-name="Group 246" transform="translate(13.681 7.91)">
      <g id="Group_245" data-name="Group 245">
        <path id="Path_257" data-name="Path 257" d="M135.763,74.165l-2.606-.623v-.467a6.552,6.552,0,0,0,2.8-5.372V64.315a6.551,6.551,0,0,0-10.81-4.983,8.553,8.553,0,0,0-15.852.012,6.551,6.551,0,0,0-10.823,4.971V67.7a6.552,6.552,0,0,0,2.8,5.372v.467l-2.606.623a6.862,6.862,0,0,0-5.285,6.7V83.6a1.465,1.465,0,0,0,1.465,1.465h6.731c-.01.178-.018.356-.018.536v5.267a1.465,1.465,0,0,0,1.465,1.465h8.805a1.465,1.465,0,1,0,0-2.93h-1.513V86.373a1.465,1.465,0,0,0-2.93,0V89.4h-2.9V85.6a6.065,6.065,0,0,1,4.666-5.917l4.02-.963,2.69,6.12a1.465,1.465,0,0,0,1.341.875h0a1.465,1.465,0,0,0,1.341-.875l2.687-6.111,4.007.957a6.064,6.064,0,0,1,4.67,5.918v3.8h-2.9V86.373a1.465,1.465,0,1,0-2.93,0V89.4h-1.66a1.465,1.465,0,0,0,0,2.93h8.952a1.465,1.465,0,0,0,1.465-1.465V85.6c0-.181-.007-.361-.018-.541h6.75a1.465,1.465,0,0,0,1.465-1.465V80.861A6.862,6.862,0,0,0,135.763,74.165Zm-6.358-13.476a3.631,3.631,0,0,1,3.618,3.387h-2.037a10.677,10.677,0,0,1-4.911-1.2A3.631,3.631,0,0,1,129.405,60.689Zm-3.626,6.8c0-.071.005-.142.005-.214v-1.3a13.607,13.607,0,0,0,5.2,1.035h2.044v.7a3.626,3.626,0,1,1-7.253,0ZM111.6,62.556h0a5.627,5.627,0,0,1,11.182-.894l-2.466-1.449a1.465,1.465,0,0,0-1.865.322A6.311,6.311,0,0,1,113.6,62.8h-2Zm-6.569-1.867a3.632,3.632,0,0,1,3.33,2.19,10.678,10.678,0,0,1-4.911,1.2h-2.037A3.631,3.631,0,0,1,105.033,60.689Zm-3.626,6.317h2.044a13.608,13.608,0,0,0,5.208-1.037V67.7a3.626,3.626,0,0,1-7.253,0Zm7.075,9.827a8.984,8.984,0,0,0-6.225,5.3H96.32V80.861a3.942,3.942,0,0,1,3.036-3.847l3.731-.891a1.465,1.465,0,0,0,1.125-1.425v-.492a6.359,6.359,0,0,0,1.638,0v.418c0,.022,0,.044,0,.065a1.467,1.467,0,0,0,1.19,1.441l2.185.524Zm4.086-2.274a6.873,6.873,0,0,0-1.173-.4l-2.617-.627v-.456a6.611,6.611,0,0,0,1.27-1.16,8.624,8.624,0,0,0,2.52,2.526v.113Zm6.362,2.152-1.714,3.9L115.5,76.7V75.655a8.584,8.584,0,0,0,3.432.006Zm-1.7-3.809a5.633,5.633,0,0,1-5.626-5.626V65.728h2a9.23,9.23,0,0,0,6.224-2.4l3.021,1.775v2.391A5.632,5.632,0,0,1,117.228,72.9Zm4.631,1.661v-.1a8.621,8.621,0,0,0,2.541-2.532,6.608,6.608,0,0,0,1.259,1.148v.456l-2.617.627A6.9,6.9,0,0,0,121.86,74.563Zm16.259,7.569h-5.958a8.982,8.982,0,0,0-6.229-5.3l-.735-.176,2.2-.526a1.466,1.466,0,0,0,1.2-1.443c0-.011,0-.023,0-.034v-.449a6.359,6.359,0,0,0,1.638,0V74.7a1.465,1.465,0,0,0,1.125,1.425l3.731.891a3.942,3.942,0,0,1,3.036,3.847Z" transform="translate(-93.39 -54)" fill="#00a651"/>
      </g>
    </g>
    <g id="Group_248" data-name="Group 248" transform="translate(36.036 43.311)">
      <g id="Group_247" data-name="Group 247">
        <path id="Path_258" data-name="Path 258" d="M248.5,296.1a1.466,1.466,0,1,0,.429,1.037A1.476,1.476,0,0,0,248.5,296.1Z" transform="translate(-246 -295.67)" fill="#fff"/>
      </g>
    </g>
    <g id="Group_250" data-name="Group 250" transform="translate(36.035)">
      <g id="Group_249" data-name="Group 249">
        <path id="Path_259" data-name="Path 259" d="M247.458,0a1.465,1.465,0,0,0-1.465,1.465V3.657a1.465,1.465,0,0,0,2.93,0V1.465A1.465,1.465,0,0,0,247.458,0Z" transform="translate(-245.993)" fill="#00a651"/>
      </g>
    </g>
    <g id="Group_252" data-name="Group 252" transform="translate(28.067 2.814)">
      <g id="Group_251" data-name="Group 251">
        <path id="Path_260" data-name="Path 260" d="M195.636,21.177,194.1,19.642a1.465,1.465,0,1,0-2.071,2.072l1.537,1.535a1.465,1.465,0,1,0,2.07-2.072Z" transform="translate(-191.599 -19.213)" fill="#00a651"/>
      </g>
    </g>
    <g id="Group_254" data-name="Group 254" transform="translate(42.444 2.852)">
      <g id="Group_253" data-name="Group 253">
        <path id="Path_261" data-name="Path 261" d="M293.771,19.9a1.465,1.465,0,0,0-2.072,0l-1.525,1.526a1.465,1.465,0,1,0,2.073,2.071l1.525-1.526A1.465,1.465,0,0,0,293.771,19.9Z" transform="translate(-289.746 -19.469)" fill="#00a651"/>
      </g>
    </g>
  </g>
</svg>
