<svg xmlns="http://www.w3.org/2000/svg" width="65" height="67.379" viewBox="0 0 65 67.379">
  <g id="finance" transform="translate(-6 -5.034)">
    <path id="Path_228" data-name="Path 228" d="M35.032,26.083a8.76,8.76,0,0,0-2.406,0v34.81a3.61,3.61,0,1,1-7.219,0v-3.61a1.2,1.2,0,0,0-2.406,0v3.61a6.016,6.016,0,0,0,12.032,0Z" transform="translate(4.685 5.505)"/>
    <path id="Path_229" data-name="Path 229" d="M53.139,27.223a12,12,0,0,1,8.409,3.434A31.524,31.524,0,0,0,34.554,8.139a33.689,33.689,0,0,1,8.959,22.694v1.255a12,12,0,0,1,9.626-4.865Z" transform="translate(7.033 1.876)" fill="#f8e402"/>
    <path id="Path_230" data-name="Path 230" d="M34,8.139A31.524,31.524,0,0,0,7.011,30.657a11.981,11.981,0,0,1,18.035,1.431V30.833A33.69,33.69,0,0,1,34,8.139Z" transform="translate(1.436 1.876)" fill="#f8e402"/>
    <path id="Path_231" data-name="Path 231" d="M31,6.436c.38-.013.759-.028,1.142-.029h.12c.384,0,.764.016,1.144.029V5.2a1.161,1.161,0,0,0-.345-.835A1.177,1.177,0,0,0,32.2,4,1.2,1.2,0,0,0,31,5.2Z" transform="translate(6.31 1.034)"/>
    <path id="Path_232" data-name="Path 232" d="M43.251,32.038V30.783a31.365,31.365,0,0,0-9.626-22.4A31.365,31.365,0,0,0,24,30.783v1.255a11.955,11.955,0,0,1,19.251,0Z" transform="translate(4.888 1.925)" fill="#00a651"/>
    <path id="Path_233" data-name="Path 233" d="M52.626,44C47.441,44,43,50.618,43,56.032c0,6.282,6.032,7.219,9.626,7.219s9.626-.937,9.626-7.219C62.251,50.618,57.81,44,52.626,44Zm0,8.422a3.6,3.6,0,0,1,1.2,7v1.425a1.2,1.2,0,1,1-2.406,0V59.42a3.61,3.61,0,0,1-2.406-3.388,1.2,1.2,0,1,1,2.406,0,1.2,1.2,0,1,0,1.2-1.2,3.6,3.6,0,0,1-1.2-7V46.406a1.2,1.2,0,1,1,2.406,0v1.425a3.61,3.61,0,0,1,2.406,3.388,1.2,1.2,0,0,1-2.406,0,1.2,1.2,0,1,0-1.2,1.2Z" transform="translate(8.749 9.162)" fill="#00a651"/>
    <path id="Path_234" data-name="Path 234" d="M49.093,42.865a8.322,8.322,0,0,1,5.448,0L56.654,40H46.98Z" transform="translate(9.558 8.35)"/>
    <rect id="Rectangle_84" data-name="Rectangle 84" width="14" height="11" transform="translate(6 53)" fill="#f8e402"/>
    <path id="Path_235" data-name="Path 235" d="M19.438,56H5v1.2a3.61,3.61,0,0,0,3.61,3.61h7.219a3.61,3.61,0,0,0,3.61-3.61Zm-6.016,3.61H11.016a1.2,1.2,0,1,1,0-2.406h2.406a1.2,1.2,0,1,1,0,2.406Z" transform="translate(1.027 11.601)" fill="#f8e402"/>
    <path id="Path_236" data-name="Path 236" d="M15.791,40H8.572a3.61,3.61,0,0,0-3.388,2.406h14A3.61,3.61,0,0,0,15.791,40Z" transform="translate(1.065 8.35)" fill="#f8e402"/>
  </g>
</svg>
