<svg xmlns="http://www.w3.org/2000/svg" width="75.767" height="66" viewBox="0 0 75.767 66">
  <g id="health" transform="translate(0 -33)">
    <g id="Group_256" data-name="Group 256" transform="translate(0 33)">
      <g id="Group_255" data-name="Group 255">
        <path id="Path_262" data-name="Path 262" d="M55.641,33C46.665,33,40.9,39.217,37.883,44.816,34.864,39.217,29.1,33,20.126,33,8.736,33,0,42.241,0,54.5a23.067,23.067,0,0,0,1.819,8.987H18.753l3.826-7.652a2.311,2.311,0,0,1,3.971,0l6.893,13.787L35.9,64.711a2.311,2.311,0,0,1,3.971,0l2.454,4.908,6.893-13.787a2.311,2.311,0,0,1,3.971,0l3.826,7.652H73.948A23.067,23.067,0,0,0,75.767,54.5C75.767,42.241,67.03,33,55.641,33Z" transform="translate(0 -33)" fill="#00a651"/>
      </g>
    </g>
    <g id="Group_258" data-name="Group 258" transform="translate(4.149 61.789)">
      <g id="Group_257" data-name="Group 257">
        <path id="Path_263" data-name="Path 263" d="M79.529,233.68a2.221,2.221,0,0,1-1.986-1.227l-2.454-4.908L68.2,241.332a2.22,2.22,0,0,1-3.971,0l-2.454-4.908-2.454,4.908a2.311,2.311,0,0,1-3.971,0l-6.893-13.787L46,232.453a2.221,2.221,0,0,1-1.986,1.227H28.037c4.569,7.188,12.8,14.016,23.089,22.7,2.889,2.439,5.963,5.033,9.191,7.832a2.223,2.223,0,0,0,2.909,0c3.228-2.8,6.3-5.393,9.191-7.832,10.292-8.687,18.52-15.514,23.089-22.7Z" transform="translate(-28.037 -227.545)" fill="#00a651"/>
      </g>
    </g>
  </g>
</svg>
