<svg xmlns="http://www.w3.org/2000/svg" width="32.701" height="37.2" viewBox="0 0 32.701 37.2">
  <g id="in-house" transform="translate(0.008)">
    <g id="Group_70" data-name="Group 70">
      <g id="Group_69" data-name="Group 69">
        <path id="Path_277" data-name="Path 277" d="M28.611,6.758a.687.687,0,0,0,.639-.727V2.18A2.063,2.063,0,0,0,27.334,0H1.92A2.063,2.063,0,0,0,0,2.18V35.023A2.063,2.063,0,0,0,1.92,37.2H27.334a2.063,2.063,0,0,0,1.916-2.18V32.988a.644.644,0,1,0-1.277,0v2.035a.688.688,0,0,1-.639.727H1.92a.688.688,0,0,1-.639-.727V2.18a.688.688,0,0,1,.639-.727H27.334a.688.688,0,0,1,.639.727V6.031a.687.687,0,0,0,.638.727Z" transform="translate(-0.004)" fill="#fff"/>
      </g>
    </g>
    <g id="Group_72" data-name="Group 72" transform="translate(3.065 3.488)">
      <g id="Group_71" data-name="Group 71">
        <path id="Path_278" data-name="Path 278" d="M70.475,48H48.637a.687.687,0,0,0-.639.727V63.913a.644.644,0,1,0,1.277,0V49.453H69.837v1.163a.644.644,0,1,0,1.277,0V48.727A.687.687,0,0,0,70.475,48Z" transform="translate(-47.998 -48)" fill="#fff"/>
      </g>
    </g>
    <g id="Group_74" data-name="Group 74" transform="translate(3.064 21.363)">
      <g id="Group_73" data-name="Group 73">
        <path id="Path_279" data-name="Path 279" d="M49.084,294.213a.585.585,0,0,0-.9,0,.8.8,0,0,0,0,1.027.585.585,0,0,0,.9,0,.8.8,0,0,0,0-1.027Z" transform="translate(-47.994 -294)" fill="#fff"/>
      </g>
    </g>
    <g id="Group_76" data-name="Group 76" transform="translate(3.065 24.16)">
      <g id="Group_75" data-name="Group 75">
        <path id="Path_280" data-name="Path 280" d="M70.475,339a.687.687,0,0,0-.639.727v.872H49.275v-7.375a.644.644,0,1,0-1.277,0v8.1a.687.687,0,0,0,.639.727H70.475a.687.687,0,0,0,.639-.727v-1.6a.687.687,0,0,0-.639-.724Z" transform="translate(-47.998 -332.5)" fill="#fff"/>
      </g>
    </g>
    <g id="Group_78" data-name="Group 78" transform="translate(14.345 25.461)">
      <g id="Group_77" data-name="Group 77">
        <path id="Path_281" data-name="Path 281" d="M230.1,350.619a.585.585,0,0,0-.9,0l-1.262,1.436-.784-.893a1.166,1.166,0,0,0-1.8,0l-.51.581a.8.8,0,0,0,0,1.028.586.586,0,0,0,.9,0l.506-.575.784.893a1.166,1.166,0,0,0,1.8,0l1.267-1.442a.8.8,0,0,0,0-1.028Z" transform="translate(-224.661 -350.406)" fill="#fff"/>
      </g>
    </g>
    <g id="Group_80" data-name="Group 80" transform="translate(7.393 7.898)">
      <g id="Group_79" data-name="Group 79">
        <path id="Path_282" data-name="Path 282" d="M140.785,116.037a2.369,2.369,0,0,0,.23-1.688,2.087,2.087,0,0,0-.941-1.331.683.683,0,0,1-.313-.618,2.286,2.286,0,0,0-.542-1.593,1.744,1.744,0,0,0-1.4-.617.572.572,0,0,1-.543-.357,1.931,1.931,0,0,0-1.169-1.071,1.672,1.672,0,0,0-1.483.262.523.523,0,0,1-.627,0,1.672,1.672,0,0,0-1.483-.262,1.931,1.931,0,0,0-1.169,1.071.575.575,0,0,1-.543.357,1.745,1.745,0,0,0-1.4.617,2.286,2.286,0,0,0-.542,1.593.683.683,0,0,1-.313.618,2.087,2.087,0,0,0-.941,1.331,2.394,2.394,0,0,0-.045.832H116.417a.733.733,0,0,0,0,1.453h11.469a.694.694,0,0,1-.05.116,2.369,2.369,0,0,0-.23,1.688,2.288,2.288,0,0,0,.067.231H116.417a.733.733,0,0,0,0,1.453h12.4a.739.739,0,0,1,.038.264,2.286,2.286,0,0,0,.542,1.593,1.744,1.744,0,0,0,1.4.617.573.573,0,0,1,.543.357,2.133,2.133,0,0,0,.284.461V130.2a.734.734,0,0,0,.393.671.583.583,0,0,0,.7-.156l1.593-1.8,1.593,1.8a.6.6,0,0,0,.45.212.571.571,0,0,0,.245-.056.734.734,0,0,0,.393-.671v-6.786a2.13,2.13,0,0,0,.284-.461.575.575,0,0,1,.543-.357,1.743,1.743,0,0,0,1.4-.617,2.286,2.286,0,0,0,.542-1.593.683.683,0,0,1,.313-.618,2.087,2.087,0,0,0,.941-1.331,2.369,2.369,0,0,0-.23-1.688.74.74,0,0,1,0-.712Zm-5.07,12.415-.954-1.08a.585.585,0,0,0-.9,0l-.954,1.08v-4.359a1.694,1.694,0,0,0,1.092-.331.523.523,0,0,1,.627,0,1.7,1.7,0,0,0,1,.334h.088v4.36Zm4.067-10.39a.644.644,0,0,1-.294.416,2.184,2.184,0,0,0-1,1.976.7.7,0,0,1-.169.5.539.539,0,0,1-.437.193,1.837,1.837,0,0,0-1.737,1.141.6.6,0,0,1-.365.335.516.516,0,0,1-.464-.082,1.675,1.675,0,0,0-2.005,0,.516.516,0,0,1-.464.082.6.6,0,0,1-.366-.335,1.836,1.836,0,0,0-1.737-1.141.539.539,0,0,1-.437-.193.7.7,0,0,1-.169-.5,2.294,2.294,0,0,0-.5-1.547l-.031-.036a1.884,1.884,0,0,0-.466-.392.643.643,0,0,1-.294-.416.73.73,0,0,1,.072-.528,2.369,2.369,0,0,0,0-2.282.731.731,0,0,1-.072-.528.644.644,0,0,1,.294-.416,2.184,2.184,0,0,0,1-1.976.7.7,0,0,1,.169-.5.539.539,0,0,1,.437-.193,1.837,1.837,0,0,0,1.737-1.141.6.6,0,0,1,.366-.335.516.516,0,0,1,.464.082,1.675,1.675,0,0,0,2.005,0,.516.516,0,0,1,.464-.082.6.6,0,0,1,.365.335,1.837,1.837,0,0,0,1.737,1.141.539.539,0,0,1,.437.193.7.7,0,0,1,.169.5,2.184,2.184,0,0,0,1,1.976.643.643,0,0,1,.294.416.73.73,0,0,1-.072.528,2.369,2.369,0,0,0,0,2.282.73.73,0,0,1,.074.527Z" transform="translate(-115.778 -108.691)" fill="#fff"/>
      </g>
    </g>
    <g id="Group_82" data-name="Group 82" transform="translate(24.005 13.41)">
      <g id="Group_81" data-name="Group 81">
        <path id="Path_283" data-name="Path 283" d="M380.895,184.77a.585.585,0,0,0-.9,0l-2.119,2.412-.844-.96a.586.586,0,0,0-.9,0,.8.8,0,0,0,0,1.028l1.3,1.474a.585.585,0,0,0,.9,0L380.9,185.8a.8.8,0,0,0-.008-1.028Z" transform="translate(-375.938 -184.557)" fill="#fff"/>
      </g>
    </g>
    <g id="Group_84" data-name="Group 84" transform="translate(6.705 8.574)">
      <g id="Group_83" data-name="Group 83">
        <path id="Path_284" data-name="Path 284" d="M106.094,118.213a.585.585,0,0,0-.9,0,.8.8,0,0,0,0,1.027.585.585,0,0,0,.9,0,.8.8,0,0,0,0-1.027Z" transform="translate(-105.004 -118)" fill="#fff"/>
      </g>
    </g>
    <g id="Group_86" data-name="Group 86" transform="translate(9.088 8.574)">
      <g id="Group_85" data-name="Group 85">
        <path id="Path_285" data-name="Path 285" d="M146.076,118h-3.108a.733.733,0,0,0,0,1.453h3.108a.733.733,0,0,0,0-1.453Z" transform="translate(-142.33 -118)" fill="#fff"/>
      </g>
    </g>
    <g id="Group_88" data-name="Group 88" transform="translate(11.399 21.363)">
      <g id="Group_87" data-name="Group 87">
        <path id="Path_286" data-name="Path 286" d="M186.455,294h-7.3a.733.733,0,0,0,0,1.453h7.3a.733.733,0,0,0,0-1.453Z" transform="translate(-178.516 -294)" fill="#fff"/>
      </g>
    </g>
  </g>
</svg>
