<svg xmlns="http://www.w3.org/2000/svg" width="47" height="47" viewBox="0 0 47 47">
  <g id="_005-linkedin" data-name="005-linkedin" transform="translate(-0.11 0)">
    <circle id="Ellipse_3" data-name="Ellipse 3" cx="23.5" cy="23.5" r="23.5" transform="translate(0.11 0)" fill="#007ab9"/>
    <g id="Group_104" data-name="Group 104" transform="translate(14.667 14.667)">
      <path id="Path_349" data-name="Path 349" d="M45.363,34.687v6.765H41.441V35.14c0-1.585-.566-2.667-1.986-2.667a2.145,2.145,0,0,0-2.012,1.434,2.684,2.684,0,0,0-.13.956v6.588H33.391s.053-10.689,0-11.8h3.923v1.672c-.008.013-.019.026-.026.039h.026v-.039a3.894,3.894,0,0,1,3.535-1.949c2.58,0,4.515,1.686,4.515,5.308ZM29.287,23.969a2.044,2.044,0,1,0-.051,4.076h.025a2.045,2.045,0,1,0,.026-4.076ZM27.3,41.451h3.921v-11.8H27.3Z" transform="translate(-27.068 -23.969)" fill="#f1f2f2"/>
    </g>
  </g>
</svg>
