<svg xmlns="http://www.w3.org/2000/svg" width="36.883" height="41.957" viewBox="0 0 36.883 41.957">
  <g id="online" transform="translate(0.003)">
    <path id="Path_291" data-name="Path 291" d="M34.617,18.232A6.616,6.616,0,1,0,28,11.616,6.616,6.616,0,0,0,34.617,18.232Zm0-12.029A5.414,5.414,0,1,1,29.2,11.618,5.414,5.414,0,0,1,34.617,6.2Z" transform="translate(-12 -0.356)" fill="#fff"/>
    <path id="Path_292" data-name="Path 292" d="M34,10.382v6l6-3Zm1.067,1.728,2.543,1.272-2.543,1.272Z" transform="translate(-13.503 -2.519)" fill="#fff"/>
    <path id="Path_293" data-name="Path 293" d="M34.9,1H12.3A3.2,3.2,0,0,0,9.326,4.384v13.2L2.833,21.615a1.446,1.446,0,0,0-.514,1.814l.288.644a2.182,2.182,0,0,0-.418,1.289v3.577A3.244,3.244,0,0,0,1,31.453a1.922,1.922,0,0,0,1.784,2.03,1.922,1.922,0,0,0,1.784-2.03,3.244,3.244,0,0,0-1.189-2.514V25.363a.788.788,0,0,1,.015-.141,1.13,1.13,0,0,0,.152.075,1.036,1.036,0,0,0,.362.066,1.1,1.1,0,0,0,.555-.156l.343-.213L5.9,27.5l.46-.125.149-.042a4.744,4.744,0,0,0,1.637,2.6,7.49,7.49,0,0,0-4.175,6.933v6.091h11.3V39.349l.059.09A4.613,4.613,0,0,0,19.139,41.6a4.613,4.613,0,0,0,3.806-2.166l2-3.028a2.775,2.775,0,0,0,.443-1.512V34.65A2.573,2.573,0,0,0,24.2,32.43V29.423H34.9a3.2,3.2,0,0,0,2.974-3.384V4.384A3.2,3.2,0,0,0,34.9,1ZM10.515,4.384A1.922,1.922,0,0,1,12.3,2.353H34.9a1.922,1.922,0,0,1,1.784,2.03V19.949H13.092l-.033-.076.381-.236a1.446,1.446,0,0,0,.514-1.814l-.536-1.2a1.231,1.231,0,0,0-.691-.671,1.059,1.059,0,0,0-.916.091l-1.3.8ZM2.784,32.13a.64.64,0,0,1-.6-.677c0-.555.4-1.324.593-1.353.192.03.6.8.6,1.353a.64.64,0,0,1-.6.677Zm1.131-8.118-.525-1.2,8.968-5.572.536,1.2Zm1.936.333,6.162-3.824.737,1.684a18.673,18.673,0,0,1-2.905,2.346,16.706,16.706,0,0,1-3.3,1.372ZM7.66,26.966A15.5,15.5,0,0,0,10.4,25.75a16.872,16.872,0,0,0,2.411-1.85,3.675,3.675,0,0,1,.678,2.143,3.2,3.2,0,0,1-2.974,3.384A3.051,3.051,0,0,1,7.66,26.966ZM24.194,34.9a1.289,1.289,0,0,1-.2.7l-2,3.028a3.321,3.321,0,0,1-5.709,0l-2.319-3.519-.952.811,1.07,1.624V41.6H5.163V36.867c0-3.359,2.4-6.091,5.352-6.091h.7a5.877,5.877,0,0,1,4.959,2.938l2.356,3.829h1.183L22.38,33.9a.98.98,0,0,1,.788-.42,1.1,1.1,0,0,1,1.025,1.167ZM23,32.15a2.121,2.121,0,0,0-1.537.887l-2.3,3.153-2.007-3.252c-.029-.047-.064-.088-.093-.134V24H23Zm11.9-4.08H24.2V25.363H35.5V24.009H24.2V22.656H15.868v8.7a7,7,0,0,0-2.743-1.634,5,5,0,0,0,1.553-3.686,5.145,5.145,0,0,0-.951-3l.159-.158.337-.344L13.684,21.3h23v4.737A1.922,1.922,0,0,1,34.9,28.07Z" transform="translate(-1 -1)" fill="#fff"/>
    <path id="Path_294" data-name="Path 294" d="M30,41h4.8v1.822H30Z" transform="translate(-13.393 -14.243)" fill="#fff"/>
    <path id="Path_295" data-name="Path 295" d="M30,45h3.2v1.822H30Z" transform="translate(-13.165 -15.567)" fill="#fff"/>
    <path id="Path_296" data-name="Path 296" d="M30,37h4.8v1.822H30Z" transform="translate(-13.393 -12.918)" fill="#fff"/>
    <path id="Path_297" data-name="Path 297" d="M19,13h1.6v1.822H19Z" transform="translate(-8.419 -4.973)" fill="#fff"/>
    <path id="Path_298" data-name="Path 298" d="M57,25h1.6v1.822H57Z" transform="translate(-24.931 -8.946)" fill="#fff"/>
    <path id="Path_299" data-name="Path 299" d="M57,21h1.6v1.822H57Z" transform="translate(-24.931 -7.621)" fill="#fff"/>
    <path id="Path_300" data-name="Path 300" d="M57,17h1.6v1.822H57Z" transform="translate(-24.931 -6.297)" fill="#fff"/>
    <path id="Path_301" data-name="Path 301" d="M20.6,6.822H27V5H20.6A1.724,1.724,0,0,0,19,6.822v3.644h1.6Z" transform="translate(-9.008 -1.356)" fill="#fff"/>
  </g>
</svg>
