<svg xmlns="http://www.w3.org/2000/svg" width="15.19" height="13.563" viewBox="0 0 15.19 13.563">
  <g id="share" transform="translate(0 -27.408)">
    <path id="Path_365" data-name="Path 365" d="M15.029,31.909l-4.34-4.34a.543.543,0,0,0-.924.382v2.17h-1.9q-6.044,0-7.417,3.416A7.719,7.719,0,0,0,0,36.359a10.179,10.179,0,0,0,1.077,3.823q.025.059.089.2t.114.254a.964.964,0,0,0,.11.186.29.29,0,0,0,.237.144.248.248,0,0,0,.2-.085.316.316,0,0,0,.072-.212,1.725,1.725,0,0,0-.021-.225,1.754,1.754,0,0,1-.021-.2q-.042-.576-.042-1.043a7.215,7.215,0,0,1,.148-1.534A4.607,4.607,0,0,1,2.373,36.5a2.949,2.949,0,0,1,.678-.856,3.979,3.979,0,0,1,.894-.589,4.848,4.848,0,0,1,1.127-.36,10.75,10.75,0,0,1,1.305-.182q.657-.051,1.488-.051h1.9v2.17a.54.54,0,0,0,.924.381l4.34-4.34a.533.533,0,0,0,0-.763Z" transform="translate(0 0)" fill="#00a651"/>
  </g>
</svg>
