<svg xmlns="http://www.w3.org/2000/svg" width="47" height="47" viewBox="0 0 47 47">
  <g id="_004-twitter" data-name="004-twitter" transform="translate(0.075)">
    <circle id="Ellipse_2" data-name="Ellipse 2" cx="23.5" cy="23.5" r="23.5" transform="translate(-0.075)" fill="#55acee"/>
    <g id="Group_103" data-name="Group 103" transform="translate(15.131 16.704)">
      <path id="Path_348" data-name="Path 348" d="M43.318,35.78a7.456,7.456,0,0,1-2.146.588A3.747,3.747,0,0,0,42.815,34.3a7.481,7.481,0,0,1-2.373.907,3.74,3.74,0,0,0-6.368,3.409,10.608,10.608,0,0,1-7.7-3.905A3.741,3.741,0,0,0,27.527,39.7a3.711,3.711,0,0,1-1.693-.468c0,.016,0,.032,0,.047a3.739,3.739,0,0,0,3,3.664,3.752,3.752,0,0,1-1.687.065,3.741,3.741,0,0,0,3.491,2.6A7.544,7.544,0,0,1,25.1,47.152,10.627,10.627,0,0,0,41.464,38.2c0-.162,0-.323-.011-.483a7.578,7.578,0,0,0,1.865-1.934Z" transform="translate(-25.103 -34.028)" fill="#f1f2f2"/>
    </g>
  </g>
</svg>
