<svg id="university" xmlns="http://www.w3.org/2000/svg" width="56.276" height="73.5" viewBox="0 0 56.276 73.5">
  <path id="Path_264" data-name="Path 264" d="M102.635,262.118a5.429,5.429,0,0,0-3.1-2.642l-8.431-3.882-4.051-3.416-6.509,6.474h0l2.809,18.777a.247.247,0,0,1-.045.183L80.37,281.63a.248.248,0,0,1-.4,0l-2.937-4.019a.247.247,0,0,1-.045-.183L79.8,258.65h0l-6.508-6.473-4.051,3.416L60.8,259.475a5.477,5.477,0,0,0-3.1,2.642s-9.165,21.819-4.194,21.819H106.83C111.8,283.937,102.635,262.118,102.635,262.118Z" transform="translate(-52.032 -210.437)" fill="#00a651"/>
  <path id="Path_265" data-name="Path 265" d="M124.822,21.764a.47.47,0,0,0,.421-.522q-.141-1.209-.283-2.416l-.2-1.686a.47.47,0,0,0-.509-.412h-.365l.007-5.661.191-.069.636-.23a1.36,1.36,0,0,0,0-2.557L102.232.081a1.359,1.359,0,0,0-.925,0L78.814,8.21a1.36,1.36,0,0,0,0,2.557l8.315,3a20.339,20.339,0,0,0-.83,6.337c.146,13.474,7.968,21.508,15.2,21.508,7.153,0,15.059-8.035,15.2-21.508a20.537,20.537,0,0,0-.777-6.164l6.046-2.185.013,4.969h-.365a.469.469,0,0,0-.508.414l-.473,4.1a.47.47,0,0,0,.1.348.463.463,0,0,0,.32.171m-19.56,16.58c-6.314,0-10.671-7.4-11.55-14.791-.813-6.838,9.077-7.157,9.651-2.918.177,1.3-1.319,2.7-1.15,3.237.837,2.656,14.693-8.67,14.6-.322C112.989,29.445,107.521,38.345,101.505,38.345Z" transform="translate(-73.632 0)" fill="#f8e402"/>
</svg>
