<svg xmlns="http://www.w3.org/2000/svg" width="51.999" height="47.937" viewBox="0 0 51.999 47.937">
  <g id="virtual" transform="translate(0 -2.5)">
    <path id="Path_465" data-name="Path 465" d="M27.37,18.5a8.133,8.133,0,0,0-8.119,8.124v.811a.811.811,0,0,0-.811.812v4.881a.812.812,0,0,0,.811.812,9.748,9.748,0,0,0,4.875,8.429V44.5h-2.44A5.694,5.694,0,0,0,16,50.188v2.436a.812.812,0,0,0,1.625,0V50.188a4.067,4.067,0,0,1,4.062-4.061H24.6l1.387,1.386a.5.5,0,0,0,.044.029.778.778,0,0,0,.174.117.811.811,0,0,0,.078.039.774.774,0,0,0,.535.011L29,46.983l2.179.727a.774.774,0,0,0,.54-.012.858.858,0,0,0,.078-.039.769.769,0,0,0,.174-.117c.014-.012.031-.017.044-.029L33.4,46.127h2.913a4.067,4.067,0,0,1,4.062,4.061v2.436a.813.813,0,0,0,1.625,0V50.188A5.694,5.694,0,0,0,36.31,44.5H33.87V42.369a9.748,9.748,0,0,0,4.878-8.429.812.812,0,0,0,.811-.812v-4.88a.811.811,0,0,0-.811-.812v-.811a4.881,4.881,0,0,0-4.062-4.8v-2.51a.811.811,0,0,0-.812-.812h-6.5ZM37.936,29.062v3.254h-.811V29.062ZM35.5,33.128a.813.813,0,0,1-.812.812H23.312a.813.813,0,0,1-.812-.812v-4.88a.813.813,0,0,1,.812-.812H34.688a.813.813,0,0,1,.812.812Zm-14.627-.812h-.811V29.062h.811ZM32.25,44.979l-1.033,1.032-1.96-.654a.807.807,0,0,0-.087-.011.785.785,0,0,0-.17-.021.844.844,0,0,0-.17.021.8.8,0,0,0-.087.011l-1.96.654L25.75,44.979V43.12a9.57,9.57,0,0,0,6.5,0ZM29,42.064a8.134,8.134,0,0,1-8.125-8.123h.15a2.434,2.434,0,0,0,2.287,1.625H34.688a2.433,2.433,0,0,0,2.287-1.625h.15A8.134,8.134,0,0,1,29,42.064Zm8.125-15.437v.811h-.15a2.434,2.434,0,0,0-2.287-1.625H23.312a2.433,2.433,0,0,0-2.287,1.625h-.15v-.811a6.507,6.507,0,0,1,6.5-6.5h5.688v2.44a.811.811,0,0,0,.812.812,3.254,3.254,0,0,1,3.25,3.246Z" transform="translate(-3 -3)" fill="#fff"/>
    <path id="Path_466" data-name="Path 466" d="M60,29.5H47.812a.811.811,0,0,0-.812.812V41.689a.811.811,0,0,0,.812.812H60a.811.811,0,0,0,.812-.812V30.313A.811.811,0,0,0,60,29.5Zm-.812,1.625v.816H48.625v-.812ZM48.625,40.876V33.563H59.188v7.312Z" transform="translate(-8.813 -5.063)" fill="#fff"/>
    <path id="Path_467" data-name="Path 467" d="M57.516,36.5H51.9a.813.813,0,1,0,0,1.625h5.62a.813.813,0,1,0,0-1.625Z" transform="translate(-9.578 -6.375)" fill="#fff"/>
    <path id="Path_468" data-name="Path 468" d="M55.078,39.5H51.9a.813.813,0,1,0,0,1.625h3.183a.813.813,0,0,0,0-1.625Z" transform="translate(-9.578 -6.937)" fill="#fff"/>
    <path id="Path_469" data-name="Path 469" d="M15.3,6.364h0A8.112,8.112,0,0,0,2.467,15.316a.823.823,0,0,0,.036.1A8.119,8.119,0,1,0,15.3,6.364ZM11.75,9.375a.813.813,0,0,1,0-1.625h2.659a6.544,6.544,0,0,1,1.337,1.625Zm-4.876,6.5a.813.813,0,0,1,0,1.625H5.841A6.545,6.545,0,0,1,4.5,15.875Zm3.25,3.25a6.459,6.459,0,0,1-2.041-.332,2.43,2.43,0,0,0-1.208-4.542H3.84a6.46,6.46,0,0,1,7.3-8.038A2.433,2.433,0,0,0,11.748,11h4.66a6.472,6.472,0,0,1-6.286,8.125Z" transform="translate(-0.375 -0.374)" fill="#fff"/>
    <path id="Path_470" data-name="Path 470" d="M.812,42.876H13a.823.823,0,0,0,.28-.056.871.871,0,0,0,.087-.04.7.7,0,0,0,.087-.041c.022-.016.034-.038.054-.054a.74.74,0,0,0,.118-.119.729.729,0,0,0,.141-.261.81.81,0,0,0,.033-.163c0-.026.016-.049.016-.076V32.313A.811.811,0,0,0,13,31.5H.812A.811.811,0,0,0,0,32.313v9.75a.811.811,0,0,0,.812.812Zm4.875-2.709.582.777-.2.307H4.875Zm4.062-1.514,1.733,2.6H8.018ZM1.625,33.126H12.188v6.253L10.43,36.742h0a.7.7,0,0,0-.087-.087.763.763,0,0,0-.139-.14h0A.811.811,0,0,0,9.91,36.4a.833.833,0,0,0-.156,0,.833.833,0,0,0-.156,0,.812.812,0,0,0-.294.12h0a.664.664,0,0,0-.076.076.775.775,0,0,0-.15.15h0l-1.853,2.77-.888-1.184a.642.642,0,0,0-.087-.078.763.763,0,0,0-.077-.087l-.042-.019a.86.86,0,0,0-.156-.075.818.818,0,0,0-.134-.046.757.757,0,0,0-.161-.009.806.806,0,0,0-.147.008.74.74,0,0,0-.144.051.837.837,0,0,0-.15.071c-.014.01-.03.011-.042.02a.849.849,0,0,0-.078.087.768.768,0,0,0-.087.078L2.844,41.251H1.624Z" transform="translate(0 -5.437)" fill="#fff"/>
    <path id="Path_471" data-name="Path 471" d="M4.842,37.126a.813.813,0,0,0,0-1.625H4.834a.813.813,0,1,0,.008,1.625Z" transform="translate(-0.755 -6.187)" fill="#fff"/>
    <path id="Path_472" data-name="Path 472" d="M49.938,2.5H41.812A.811.811,0,0,0,41,3.313v8.125a.811.811,0,0,0,.812.812h8.125a.811.811,0,0,0,.812-.812V3.313a.811.811,0,0,0-.812-.812Zm-.812,8.125h-6.5v-6.5h6.5Z" transform="translate(-7.687)" fill="#fff"/>
    <path id="Path_473" data-name="Path 473" d="M49,17.313v4.062a.811.811,0,0,0,.812.812h4.062a.811.811,0,0,0,.812-.812V17.313a.811.811,0,0,0-.812-.812H49.812a.811.811,0,0,0-.812.812Zm1.625.812h2.44v2.44h-2.44Z" transform="translate(-9.188 -2.625)" fill="#fff"/>
    <path id="Path_474" data-name="Path 474" d="M36.062,11.376a.811.811,0,0,0,.812-.812V7.313a.811.811,0,0,0-.812-.812h-3.25A.811.811,0,0,0,32,7.313v3.25a.811.811,0,0,0,.812.812Zm-2.44-3.25h1.625V9.751H33.625Z" transform="translate(-6 -0.75)" fill="#fff"/>
    <path id="Path_475" data-name="Path 475" d="M34.938,32.5H26.812a.813.813,0,0,0,0,1.625h8.125a.813.813,0,0,0,0-1.625Z" transform="translate(-4.875 -5.625)" fill="#fff"/>
  </g>
</svg>
