<svg xmlns="http://www.w3.org/2000/svg" width="768.536" height="97" viewBox="0 0 768.536 97">
  <g id="waves" transform="translate(12.151 29.138)">
    <g id="waves-2" data-name="waves" transform="translate(-12.189 -29.138)">
      <path id="Path_344" data-name="Path 344" d="M1022.32,349.887s161.854-57.145,407.75-2.1,360.346-23.958,360.346-23.958v78.447h-768.1s-.031-35.04.034-41.074c-.142-7.132.026-8.524-.03-11.317" transform="translate(-1022.257 -305.276)" fill="#1b1819"/>
      <path id="Path_345" data-name="Path 345" d="M53.2,34.332S151.947,52.694,255.869,46.2C314.9,42.512,391.6,28.483,437.246,0c.624,17.358.494,14.154.494,14.154S387.221,43.162,311.046,51.91a659.92,659.92,0,0,1-95.312,3.546c-39.577-1.209-85.282-5.537-137.64-14.61-12.865-2.229-26.93-5.357-37.567-7.048C-5.224,26.527-1.611,27.383,1.882,27.866c.87.121,1.836.224,1.547.082C.862,26.651,53.2,34.332,53.2,34.332Z" transform="matrix(0.999, 0.035, -0.035, 0.999, 331.261, 0)" fill="#00a651"/>
    </g>
  </g>
</svg>
