<svg xmlns="http://www.w3.org/2000/svg" width="26.442" height="26.442" viewBox="0 0 26.442 26.442">
  <g id="_001-scholarship" data-name="001-scholarship" transform="translate(0)">
    <path id="Path_349" data-name="Path 349" d="M26.214,29.625a1.633,1.633,0,0,1,0-2.309l1.1-1.1a.426.426,0,0,0-.3-.728H23.983A2.983,2.983,0,0,0,21.9,20.368H17.932l4.131-1.739a.427.427,0,0,0,.261-.393V13.942l2.132-.869v2.854L23.3,17.081a.427.427,0,0,0-.08.492L24.5,20.132a.427.427,0,0,0,.763,0l1.279-2.559a.426.426,0,0,0-.08-.492l-1.154-1.154v-3.2l.161-.066a.427.427,0,0,0-.026-.8L13.929,8.022a.43.43,0,0,0-.27,0L2.144,11.86a.427.427,0,0,0-.026.8l3.147,1.282v4.294a.427.427,0,0,0,.261.393l4.13,1.739H1.426a.426.426,0,0,0-.3.728l1.1,1.1a1.633,1.633,0,0,1,0,2.309l-1.1,1.1a.426.426,0,0,0,.3.728H4.459a2.983,2.983,0,0,0,2.085,5.118H27.015a.426.426,0,0,0,.3-.728ZM24.883,18.988l-.76-1.521.76-.76.76.76Zm1.1,7.351-.375.375a2.467,2.467,0,0,0-.69,1.331H6.544V26.339H25.985ZM24.03,23.353A2.134,2.134,0,0,1,22.75,25.3V21.4A2.134,2.134,0,0,1,24.03,23.353Zm-2.559-5.4-5.737,2.416h-.02v.009L14.221,21V17.243l7.25-2.954ZM13.794,8.876,24.08,12.3,13.794,16.5,3.508,12.3ZM6.118,14.289l7.25,2.954V21l-7.25-3.053ZM2.456,21.221h9.226l1.946.82a.429.429,0,0,0,.331,0l1.947-.82H21.9v1.706H3.52a2.467,2.467,0,0,0-.69-1.331Zm0,4.265.375-.375a2.467,2.467,0,0,0,.69-1.331H21.9v1.706H2.456Zm1.956,2.985a2.134,2.134,0,0,1,1.279-1.952v3.9A2.134,2.134,0,0,1,4.412,28.471ZM6.544,30.6V28.9H24.921a2.467,2.467,0,0,0,.69,1.331l.375.375Z" transform="translate(-1 -5.015)" fill="#fff"/>
    <path id="Path_350" data-name="Path 350" d="M47.292,3.537a2.281,2.281,0,0,1,1.436,1.436.427.427,0,0,0,.809,0,2.281,2.281,0,0,1,1.436-1.436.427.427,0,0,0,0-.809,2.281,2.281,0,0,1-1.436-1.436.427.427,0,0,0-.809,0,2.281,2.281,0,0,1-1.436,1.436.427.427,0,0,0,0,.809Zm1.841-1.174a3.154,3.154,0,0,0,.769.769,3.154,3.154,0,0,0-.769.769,3.154,3.154,0,0,0-.769-.769A3.154,3.154,0,0,0,49.132,2.363Z" transform="translate(-27.382 -1)" fill="#fff"/>
    <path id="Path_351" data-name="Path 351" d="M5.292,5.537A2.281,2.281,0,0,1,6.728,6.973a.427.427,0,0,0,.809,0A2.281,2.281,0,0,1,8.973,5.537a.427.427,0,0,0,0-.809A2.281,2.281,0,0,1,7.537,3.292a.427.427,0,0,0-.809,0A2.281,2.281,0,0,1,5.292,4.728a.427.427,0,0,0,0,.809ZM7.132,4.363a3.154,3.154,0,0,0,.769.769,3.154,3.154,0,0,0-.769.769,3.154,3.154,0,0,0-.769-.769A3.154,3.154,0,0,0,7.132,4.363Z" transform="translate(-3.294 -2.147)" fill="#fff"/>
  </g>
</svg>
